<?xml version="1.0" standalone="no"?>
<!DOCTYPE svg PUBLIC "-//W3C//DTD SVG 20010904//EN"
 "http://www.w3.org/TR/2001/REC-SVG-20010904/DTD/svg10.dtd">
<svg version="1.0" xmlns="http://www.w3.org/2000/svg"
 width="612.000000pt" height="612.000000pt" viewBox="0 0 612.000000 612.000000"
 preserveAspectRatio="xMidYMid meet">
<metadata>
Created by potrace 1.14, written by Peter Selinger 2001-2017
</metadata>
<g transform="translate(0.000000,612.000000) scale(0.100000,-0.100000)"
fill="#000000" stroke="none">
<path d="M2885 4663 c-425 -67 -782 -370 -909 -773 -39 -122 -56 -253 -56
-427 0 -109 -4 -155 -12 -163 -7 -6 -41 -29 -75 -51 -186 -120 -277 -282 -276
-494 0 -155 36 -263 123 -374 86 -109 257 -206 350 -199 l45 3 3 548 2 547
-30 6 -30 7 0 186 c0 199 15 307 60 424 27 73 45 91 82 83 45 -9 74 9 119 76
118 174 306 310 516 375 81 25 102 27 258 27 148 1 180 -2 249 -22 219 -63
388 -183 529 -373 57 -78 84 -95 131 -83 31 7 50 -13 76 -83 45 -117 60 -225
60 -424 l0 -186 -30 -6 -30 -6 0 -547 c0 -534 0 -546 20 -551 24 -6 29 -23 28
-96 -1 -45 3 -61 18 -71 17 -13 18 -20 6 -112 -17 -131 -60 -222 -147 -309
-160 -160 -394 -197 -594 -93 -134 69 -227 186 -265 334 -20 79 -22 184 -2
184 15 0 26 49 26 118 l0 42 380 0 380 0 0 78 c0 70 5 236 26 920 l7 222 -52
0 -51 0 0 75 0 74 -37 11 c-21 6 -81 16 -135 22 -172 21 -381 -22 -525 -106
l-61 -36 -94 50 c-188 99 -422 125 -630 69 l-38 -10 0 -74 0 -75 -50 0 -50 0
0 -52 c0 -29 7 -269 15 -533 8 -264 15 -515 15 -557 l0 -78 378 -2 c369 -3
377 -3 379 -23 11 -115 15 -135 29 -135 11 0 14 -16 14 -67 1 -326 281 -590
605 -570 300 19 525 247 543 550 3 64 8 87 18 87 11 0 14 21 14 93 l1 92 62
35 c274 155 374 510 224 794 -39 74 -136 172 -219 222 -35 21 -66 43 -70 48
-4 6 -8 81 -8 166 0 173 -16 296 -56 422 -98 311 -344 577 -646 697 -150 60
-218 73 -408 76 -96 2 -188 1 -205 -2z m-200 -1133 c84 -12 180 -42 255 -81
101 -51 90 21 90 -624 0 -313 0 -573 0 -577 0 -4 -35 10 -77 31 -124 62 -233
85 -393 85 -74 0 -152 -5 -172 -11 l-38 -11 0 584 0 584 25 6 c92 23 209 28
310 14z m1005 -3 l75 -12 3 -586 2 -585 -77 14 c-123 22 -325 3 -438 -40 -16
-6 -60 -26 -97 -44 -36 -18 -68 -31 -70 -29 -1 2 -1 263 2 581 l5 577 60 33
c156 87 351 120 535 91z m623 -400 c38 -30 114 -130 135 -180 16 -38 15 -67
-3 -67 -8 0 -15 6 -15 13 0 38 -57 126 -121 189 -38 38 -67 73 -64 79 7 11 16
7 68 -34z"/>
</g>
</svg>
